grf
version=1
nRows=12
nColumns=28
inDegrees=no
endheader
time	ground_force_1_vx	ground_force_1_vy	ground_force_1_vz	ground_force_1_px	ground_force_1_py	ground_force_1_pz	ground_moment_1_mx	ground_moment_1_my	ground_moment_1_mz	ground_force_2_vx	ground_force_2_vy	ground_force_2_vz	ground_force_2_px	ground_force_2_py	ground_force_2_pz	ground_moment_2_mx	ground_moment_2_my	ground_moment_2_mz	ground_force_3_vx	ground_force_3_vy	ground_force_3_vz	ground_force_3_px	ground_force_3_py	ground_force_3_pz	ground_moment_3_mx	ground_moment_3_my	ground_moment_3_mz
      1.06000000	      0.46962106	      0.60220030	     -1.03577929	    576.57833933	   -884.39656115	      1.20905572	      0.12884803	      0.46591613	    255.29694965	      0.47174817	      0.43373143	      1.15718764	   -166.08786440	  -1349.59043045	      0.44116951	     -0.03178794	     -0.41111146	    492.62393101	      1.93184689	     -0.31133367	   -962.47267397	    428.42551734	   -456.68870194	      0.72957932	     -0.08868958	      0.65150720	    317.24501248
      1.07000000	      0.59730775	      0.53925124	     -0.96806929	    513.31172379	   -874.47322528	      1.22287624	      0.16075384	      0.58128795	    318.51449768	      0.37633653	      0.72486686	      1.14110450	   -224.89306871	  -1302.31003901	      0.47683204	     -0.05263903	     -0.68077736	    815.75741708	      1.95049561	      0.64486907	   -962.85724973	    428.40347162	   -456.81247729	      0.72982735	     -0.07409633	      0.54430625	    265.04456337
      1.08000000	      0.33858133	      0.57142034	     -1.03239772	    565.30204851	   -856.42203050	      1.16369342	      0.11929546	      0.43137391	    236.36967720	      0.32809697	      0.35986228	      1.01151023	   -277.04817804	  -1247.05473707	      0.51957902	     -0.02585569	     -0.33439008	    400.69074084	      1.98990635	      1.35564607	   -963.61081317	    428.37937979	   -457.12842940	      0.73046946	     -0.10101179	      0.74202525	    361.32188393
      1.09000000	      0.71213100	      0.71956262	     -0.43897580	    866.18617812	   -632.25232326	      0.60272860	      0.13956124	      0.50465524	    276.52389658	      0.44152170	      0.79261727	      0.62425578	   -788.87654603	   -794.37702097	      0.86432683	     -0.09122308	     -1.17978249	   1413.70199526	      2.16506680	      1.86991433	   -963.11394105	    428.66979090	   -457.36915136	      0.73104501	     -0.10241835	      0.75235770	    366.35316983
      1.10000000	      0.60429998	      0.59450800	     -1.11019657	    546.37440441	   -889.76524324	      1.23409744	      0.12470702	      0.45094220	    247.09204630	      0.38817725	      0.50827712	      1.66002879	     36.56882921	  -1512.39841510	      0.31837769	     -0.02168489	     -0.28044931	    336.05495706	      1.79477776	      2.23748766	   -963.17667677	    428.57622971	   -457.63085534	      0.73155630	     -0.13809351	      1.01442483	    493.96417306
      1.11000000	      0.45330538	      0.69085921	     -0.95714248	    569.92499515	   -831.02413711	      1.11500915	      0.12380751	      0.44768955	    245.30976499	      0.48395102	      0.59015609	      0.79256882	   -374.15289567	   -982.24953246	      0.73430203	     -0.05445037	     -0.70420325	    843.82803460	      2.13223002	      2.07473150	   -962.26380683	    428.85507858	   -457.44000482	      0.73124231	     -0.16465705	      1.20955863	    588.98265496
      1.12000000	      0.56775898	      0.53913482	     -0.80072916	    549.55788592	   -806.98699378	      1.08142069	      0.17722241	      0.64083854	    351.14501346	      0.42275041	      0.56603143	      0.40529278	  -1498.60602176	    -34.09642142	      1.45300962	     -0.12089181	     -1.56348624	   1873.48400340	      2.19350036	      1.51431744	   -960.54302910	    428.71847959	   -457.44776059	      0.73122005	     -0.15623542	      1.14769395	    558.85826092
      1.13000000	      0.63390754	      0.62770797	     -1.02089156	    535.40105694	   -850.43266536	      1.16785384	      0.15973881	      0.57761760	    316.50334195	      0.49370857	      0.76176186	      0.68407580	   -623.24184697	   -910.57508504	      0.77804363	     -0.08067290	     -1.04333755	   1250.20365468	      2.02056474	      0.86879956	   -960.22034909	    428.51680050	   -457.30764567	      0.73087593	     -0.15929860	      1.17019586	    569.81534117
      1.14000000	      0.42123404	      0.64033842	     -0.66730781	    632.12736933	   -556.31978530	      0.58228112	      0.17945547	      0.64891329	    355.56954467	      0.34833902	      0.71646077	      0.97266780	   -155.51275560	  -1344.52286948	      0.44608095	     -0.04028478	     -0.52100055	    624.30110897	      1.65973493	      0.30328336	   -960.79842927	    428.63676644	   -457.04473597	      0.73036954	     -0.11762219	      0.86404401	    420.73771919
      1.15000000	      0.28058562	      0.79519648	     -1.11040200	    532.27148011	   -880.90078705	      1.22503756	      0.07838614	      0.28344531	    155.31276503	      0.11537873	      0.46836274	      1.39795228	     17.13849252	  -1611.15547218	      0.23470777	     -0.01551498	     -0.20065427	    240.43868102	      1.53247722	     -0.45430759	   -961.59820174	    428.80917018	   -456.81650373	      0.72994903	     -0.12613204	      0.92655677	    451.17769147
      1.16000000	      0.50204695	      0.54582383	     -1.08351405	    551.74236659	   -892.98811753	      1.23726997	      0.12098332	      0.43747727	    239.71398529	      0.39860662	      0.52230818	      0.54706170	   -769.39408648	   -950.93293218	      0.73493275	     -0.06371247	     -0.82398939	    987.36458228	      1.29672131	     -0.59072029	   -963.11070159	    428.93874851	   -456.71716089	      0.72978124	     -0.10061953	      0.73914371	    359.91874675
      1.17000000	      0.57434696	      0.67079622	     -1.41295443	    518.95653149	   -944.21757790	      1.34731054	      0.12810368	      0.46322457	    253.82212200	      0.38452938	      0.63553369	      1.49996132	      2.82732063	  -1451.20388327	      0.36726935	     -0.03565238	     -0.46109004	    552.51193891	      1.45545857	     -0.53528221	   -963.99751250	    429.08641068	   -456.75285889	      0.72989584	     -0.08661091	      0.63623740	    309.80953434
